REM DIRINDEX 1\5,1\2\6,1\2\7,1\3\8,1\3\9,1\4\10,1\4\11,1\4\12
REM DIRNAME cjc026,folder01,folder02,folder03,folder04,folder05,folder06,folder07,folder08,folder09,folder10,folder11
TITLE ""
FILE "EJE_DB3000_5th_1A_27.mp3" MP3
  TRACK 01 AUDIO
    TITLE "0:"
    INDEX 01 00:00:00
  TRACK 02 AUDIO
    TITLE "10:cjc026_07617"
    INDEX 01 00:00:13
  TRACK 03 AUDIO
    TITLE "0:"
    INDEX 01 00:02:14
  TRACK 04 AUDIO
    TITLE "11:cjc026_07618"
    INDEX 01 00:02:65
  TRACK 05 AUDIO
    TITLE "0:"
    INDEX 01 00:04:36
  TRACK 06 AUDIO
    TITLE "12:cjc026_07619"
    INDEX 01 00:05:12
  TRACK 07 AUDIO
    TITLE "0:"
    INDEX 01 00:07:11
  TRACK 08 AUDIO
    TITLE "10:cjc026_07620"
    INDEX 01 00:07:62
  TRACK 09 AUDIO
    TITLE "0:"
    INDEX 01 00:08:60
  TRACK 10 AUDIO
    TITLE "11:cjc026_07621"
    INDEX 01 00:09:34
  TRACK 11 AUDIO
    TITLE "0:"
    INDEX 01 00:11:39
  TRACK 12 AUDIO
    TITLE "12:cjc026_07622"
    INDEX 01 00:12:14
  TRACK 13 AUDIO
    TITLE "0:"
    INDEX 01 00:13:10
  TRACK 14 AUDIO
    TITLE "10:cjc026_07623"
    INDEX 01 00:13:59
  TRACK 15 AUDIO
    TITLE "0:"
    INDEX 01 00:15:62
  TRACK 16 AUDIO
    TITLE "11:cjc026_07624"
    INDEX 01 00:16:36
  TRACK 17 AUDIO
    TITLE "0:"
    INDEX 01 00:18:62
  TRACK 18 AUDIO
    TITLE "12:cjc026_07625"
    INDEX 01 00:19:36
  TRACK 19 AUDIO
    TITLE "0:"
    INDEX 01 00:21:37
  TRACK 20 AUDIO
    TITLE "10:cjc026_07626"
    INDEX 01 00:22:11
  TRACK 21 AUDIO
    TITLE "0:"
    INDEX 01 00:24:02
  TRACK 22 AUDIO
    TITLE "11:cjc026_07627"
    INDEX 01 00:24:51
  TRACK 23 AUDIO
    TITLE "0:"
    INDEX 01 00:26:22
  TRACK 24 AUDIO
    TITLE "12:cjc026_07628"
    INDEX 01 00:26:71
  TRACK 25 AUDIO
    TITLE "0:"
    INDEX 01 00:28:60
  TRACK 26 AUDIO
    TITLE "10:cjc026_07629"
    INDEX 01 00:29:38
  TRACK 27 AUDIO
    TITLE "0:"
    INDEX 01 00:31:39
  TRACK 28 AUDIO
    TITLE "11:cjc026_07630"
    INDEX 01 00:32:15
  TRACK 29 AUDIO
    TITLE "0:"
    INDEX 01 00:34:10
  TRACK 30 AUDIO
    TITLE "12:cjc026_07631"
    INDEX 01 00:34:61
  TRACK 31 AUDIO
    TITLE "0:"
    INDEX 01 00:36:62
  TRACK 32 AUDIO
    TITLE "10:cjc026_07632"
    INDEX 01 00:37:38
  TRACK 33 AUDIO
    TITLE "0:"
    INDEX 01 00:39:23
  TRACK 34 AUDIO
    TITLE "11:cjc026_07633"
    INDEX 01 00:39:74
  TRACK 35 AUDIO
    TITLE "0:"
    INDEX 01 00:42:43
  TRACK 36 AUDIO
    TITLE "12:cjc026_07634"
    INDEX 01 00:43:17
  TRACK 37 AUDIO
    TITLE "0:"
    INDEX 01 00:45:02
  TRACK 38 AUDIO
    TITLE "10:cjc026_07635"
    INDEX 01 00:45:53
  TRACK 39 AUDIO
    TITLE "0:"
    INDEX 01 00:47:40
  TRACK 40 AUDIO
    TITLE "11:cjc026_07636"
    INDEX 01 00:48:16
  TRACK 41 AUDIO
    TITLE "0:"
    INDEX 01 00:50:15
  TRACK 42 AUDIO
    TITLE "12:cjc026_07637"
    INDEX 01 00:50:68
  TRACK 43 AUDIO
    TITLE "0:"
    INDEX 01 00:52:55
  TRACK 44 AUDIO
    TITLE "10:cjc026_07638"
    INDEX 01 00:53:31
  TRACK 45 AUDIO
    TITLE "0:"
    INDEX 01 00:54:30
  TRACK 46 AUDIO
    TITLE "11:cjc026_07639"
    INDEX 01 00:55:04
  TRACK 47 AUDIO
    TITLE "0:"
    INDEX 01 00:56:16
  TRACK 48 AUDIO
    TITLE "12:cjc026_07640"
    INDEX 01 00:56:65
  TRACK 49 AUDIO
    TITLE "0:"
    INDEX 01 00:57:64
  TRACK 50 AUDIO
    TITLE "10:cjc026_07641"
    INDEX 01 00:58:38
  TRACK 51 AUDIO
    TITLE "0:"
    INDEX 01 00:59:53
  TRACK 52 AUDIO
    TITLE "11:cjc026_07642"
    INDEX 01 01:00:27
  TRACK 53 AUDIO
    TITLE "0:"
    INDEX 01 01:01:40
  TRACK 54 AUDIO
    TITLE "12:cjc026_07643"
    INDEX 01 01:02:16
  TRACK 55 AUDIO
    TITLE "0:"
    INDEX 01 01:03:31
  TRACK 56 AUDIO
    TITLE "10:cjc026_07644"
    INDEX 01 01:04:05
  TRACK 57 AUDIO
    TITLE "0:"
    INDEX 01 01:05:13
  TRACK 58 AUDIO
    TITLE "11:cjc026_07645"
    INDEX 01 01:05:64
  TRACK 59 AUDIO
    TITLE "0:"
    INDEX 01 01:07:08
  TRACK 60 AUDIO
    TITLE "12:cjc026_07646"
    INDEX 01 01:07:59
  TRACK 61 AUDIO
    TITLE "0:"
    INDEX 01 01:08:66
  TRACK 62 AUDIO
    TITLE "10:cjc026_07647"
    INDEX 01 01:09:42
  TRACK 63 AUDIO
    TITLE "0:"
    INDEX 01 01:10:49
  TRACK 64 AUDIO
    TITLE "11:cjc026_07648"
    INDEX 01 01:11:25
  TRACK 65 AUDIO
    TITLE "0:"
    INDEX 01 01:12:44
  TRACK 66 AUDIO
    TITLE "12:cjc026_07649"
    INDEX 01 01:13:18
  TRACK 67 AUDIO
    TITLE "0:"
    INDEX 01 01:14:25
  TRACK 68 AUDIO
    TITLE "10:cjc026_07650"
    INDEX 01 01:15:01
  TRACK 69 AUDIO
    TITLE "0:"
    INDEX 01 01:16:28
  TRACK 70 AUDIO
    TITLE "11:cjc026_07651"
    INDEX 01 01:17:04
  TRACK 71 AUDIO
    TITLE "0:"
    INDEX 01 01:18:25
  TRACK 72 AUDIO
    TITLE "12:cjc026_07652"
    INDEX 01 01:18:72
  TRACK 73 AUDIO
    TITLE "0:"
    INDEX 01 01:20:24
